<svg xmlns="http://www.w3.org/2000/svg" data-name="Layer 1" viewBox="0 0 32 40" x="0px" y="0px"><title>Basic UI flatten</title><path d="M16,29.22a3,3,0,0,1-2.12-.88l-.11-.11h0l-6.1-6.1A11.79,11.79,0,1,1,24.34,5.46a11.78,11.78,0,0,1,0,16.67l-6.21,6.21A3,3,0,0,1,16,29.22Zm-.82-2.4.11.11a1,1,0,0,0,1.42,0l6.22-6.21a9.79,9.79,0,1,0-13.84,0Z"/><path d="M16,18.79a5,5,0,1,1,3.54-1.46A5,5,0,0,1,16,18.79Zm0-8a3,3,0,0,0-2.12,5.12,3.07,3.07,0,0,0,4.24,0A3,3,0,0,0,16,10.79Z"/><text x="0" y="47" fill="#000000" font-size="5px" font-weight="bold" font-family="'Helvetica Neue', Helvetica, Arial-Unicode, Arial, Sans-serif">Created by Saepul Nahwan</text><text x="0" y="52" fill="#000000" font-size="5px" font-weight="bold" font-family="'Helvetica Neue', Helvetica, Arial-Unicode, Arial, Sans-serif">from the Noun Project</text></svg>